<svg xmlns="http://www.w3.org/2000/svg" width="1em" height="1em" viewBox="0 0 48 48" fill="none">
  <!-- Lymph node: bean-shaped cortex with hilum, afferent and efferent vessels -->
  <path fill="currentColor" fill-rule="evenodd" clip-rule="evenodd"
    d="M32.5 15.5c4.5 3 6.5 7.5 6 12-0.5 5-4 9-9 10.5-5.5 1.5-11-0.5-13.5-5-2.2-4-1.5-8.5 1-12 2.3-3.2 6-5.3 9.6-5.8 2-0.3 4 0 5.9 0.3zM22 18.8c-3 0.7-5.7 2.5-7.2 5.2-1.7 3-2 6.4-0.2 9.2 2 3 5.8 4.3 9.5 3.3 3.7-1 6.4-3.8 6.8-7.4 0.3-2.9-0.9-5.8-3.2-7.7-1.7-1.4-3.9-2.2-5.7-2.6z" />
  <!-- Afferent vessels (top-left) -->
  <path stroke="currentColor" stroke-width="1.8" stroke-linecap="round"
    d="M12 12l4 5M9 18l5 3M12 24l4 1" />
  <!-- Efferent vessel (bottom-right, from hilum) -->
  <path stroke="currentColor" stroke-width="1.8" stroke-linecap="round"
    d="M35 33l5 4M36 28l5 2" />
  <!-- Hilum indent on right side -->
  <circle cx="33" cy="30" r="1.6" fill="currentColor" />
</svg>
